<?xml version="1.0" standalone="no"?>
<!DOCTYPE svg PUBLIC "-//W3C//DTD SVG 20010904//EN"
 "http://www.w3.org/TR/2001/REC-SVG-20010904/DTD/svg10.dtd">
<svg version="1.0" xmlns="http://www.w3.org/2000/svg"
 width="227.000000pt" height="51.000000pt" viewBox="0 0 227.000000 51.000000"
 preserveAspectRatio="xMidYMid meet">

<g transform="translate(0.000000,51.000000) scale(0.100000,-0.100000)"
fill="#000000" stroke="none">
<path d="M173 333 c-7 -2 -13 -20 -13 -39 0 -29 5 -37 35 -51 57 -27 38 -75
-20 -53 -20 7 -25 6 -25 -5 0 -8 12 -18 26 -21 86 -22 119 76 36 107 -33 13
-25 44 11 44 16 -1 27 5 27 12 0 13 -51 17 -77 6z"/>
<path d="M300 250 c0 -72 3 -90 15 -90 11 0 15 18 17 78 3 82 5 81 39 -15 12
-35 28 -63 35 -63 7 0 22 26 33 58 38 102 40 103 40 20 1 -62 4 -78 16 -78 12
0 15 17 15 91 l0 90 -27 -3 c-24 -3 -31 -11 -48 -60 -11 -32 -23 -58 -26 -58
-4 0 -17 27 -29 60 -20 54 -25 60 -51 60 l-29 0 0 -90z"/>
<path d="M567 257 c-15 -46 -27 -86 -27 -90 0 -17 26 -5 35 16 7 15 20 23 43
25 27 3 34 -1 42 -22 5 -14 16 -26 25 -26 19 0 19 -6 -9 76 -35 103 -36 104
-60 104 -19 0 -26 -13 -49 -83z m73 -14 c0 -7 -12 -13 -26 -13 -20 0 -25 4
-20 16 3 9 9 28 13 42 l6 27 13 -30 c7 -16 13 -36 14 -42z"/>
<path d="M730 250 c0 -72 3 -90 14 -90 10 0 16 13 18 38 4 49 27 49 53 0 19
-37 45 -51 45 -25 0 6 -9 26 -19 44 -16 26 -17 32 -5 37 8 3 14 19 14 35 0 37
-23 51 -79 51 l-41 0 0 -90z m78 61 c23 -14 10 -46 -21 -49 -23 -3 -27 0 -27
21 0 36 19 47 48 28z"/>
<path d="M880 331 c0 -5 10 -11 23 -13 20 -3 22 -9 25 -80 2 -60 6 -78 17 -78
12 0 15 17 15 80 0 79 0 80 25 80 14 0 25 5 25 10 0 6 -28 10 -65 10 -36 0
-65 -4 -65 -9z"/>
<path d="M1100 250 c0 -72 3 -90 14 -90 9 0 16 12 18 32 2 27 8 33 34 39 46 9
54 17 54 54 0 41 -20 55 -79 55 l-41 0 0 -90z m84 48 c13 -22 -14 -54 -38 -45
-16 6 -22 48 -9 61 11 11 35 3 47 -16z"/>
<path d="M1250 250 c0 -72 3 -90 14 -90 10 0 16 13 18 38 4 49 27 49 53 0 19
-37 45 -51 45 -25 0 6 -9 26 -19 44 -17 27 -18 33 -5 43 17 15 18 52 2 68 -7
7 -34 12 -60 12 l-48 0 0 -90z m78 61 c23 -14 10 -46 -21 -49 -23 -3 -27 0
-27 21 0 36 19 47 48 28z"/>
<path d="M1410 250 l0 -90 50 0 c38 0 50 4 50 15 0 10 -11 15 -35 15 -31 0
-35 3 -35 25 0 21 5 25 30 25 20 0 30 5 30 15 0 10 -10 15 -31 15 -26 0 -30 3
-27 23 2 17 11 23 36 25 51 5 37 22 -18 22 l-50 0 0 -90z"/>
<path d="M1550 250 c0 -72 3 -90 15 -90 11 0 15 18 17 78 l3 77 29 -78 c37
-98 51 -98 85 3 l26 75 3 -77 c2 -60 6 -78 17 -78 12 0 15 18 15 91 l0 90 -26
-3 c-22 -2 -30 -14 -52 -67 l-26 -65 -24 67 c-23 61 -27 67 -53 67 l-29 0 0
-90z"/>
<path d="M1800 250 c0 -71 3 -90 14 -90 11 0 15 17 18 68 4 86 0 112 -18 112
-11 0 -14 -19 -14 -90z"/>
<path d="M1894 332 c-11 -7 -18 -32 -15 -60 0 -7 17 -20 36 -29 57 -27 38 -75
-20 -53 -20 7 -25 6 -25 -5 0 -19 46 -30 79 -19 21 7 27 17 29 45 3 33 0 38
-32 53 -24 11 -36 24 -36 38 0 17 5 20 30 16 20 -3 30 0 30 9 0 14 -56 18 -76
5z"/>
<path d="M2020 250 l0 -90 50 0 c38 0 50 4 50 15 0 10 -11 15 -35 15 -31 0
-35 3 -35 25 0 21 5 25 30 25 20 0 30 5 30 15 0 10 -10 15 -31 15 -26 0 -30 3
-27 23 2 16 11 23 33 25 57 6 51 22 -8 22 l-57 0 0 -90z"/>
</g>
</svg>
