<?xml version="1.0" encoding="utf-8"?>
<!-- Generator: Adobe Illustrator 16.0.0, SVG Export Plug-In . SVG Version: 6.00 Build 0)  -->
<!DOCTYPE svg PUBLIC "-//W3C//DTD SVG 1.1//EN" "http://www.w3.org/Graphics/SVG/1.1/DTD/svg11.dtd">
<svg version="1.1" id="Layer_1" xmlns="http://www.w3.org/2000/svg" xmlns:xlink="http://www.w3.org/1999/xlink" x="0px" y="0px"
	 width="796.46px" height="171px" viewBox="-100.889 326.5 796.46 171" enable-background="new -100.889 326.5 796.46 171"
	 xml:space="preserve">
<title>logo-black</title>
<g>
	<g>
		
			<linearGradient id="SVGID_1_" gradientUnits="userSpaceOnUse" x1="-52.8564" y1="32.2109" x2="-7.8849" y2="91.89" gradientTransform="matrix(1.8664 0 0 1.8664 -0.8658 299.4034)">
			<stop  offset="0" style="stop-color:#00365A"/>
			<stop  offset="0.25" style="stop-color:#00365A"/>
			<stop  offset="0.5706" style="stop-color:#054E80"/>
			<stop  offset="0.7346" style="stop-color:#075B93"/>
			<stop  offset="0.8391" style="stop-color:#054E80"/>
			<stop  offset="1" style="stop-color:#054E80"/>
		</linearGradient>
		<path fill="url(#SVGID_1_)" d="M-43.525,453.887l11.362,21.188c8.905-5.526,17.656-11.361,26.254-17.503l-35.62-6.603
			C-43.679,450.663-44.6,451.892-43.525,453.887z"/>
		
			<linearGradient id="SVGID_2_" gradientUnits="userSpaceOnUse" x1="-68.7393" y1="46.5967" x2="-25.6202" y2="103.8176" gradientTransform="matrix(1.8664 0 0 1.8664 -0.8658 299.4034)">
			<stop  offset="0" style="stop-color:#00365A"/>
			<stop  offset="0.25" style="stop-color:#00365A"/>
			<stop  offset="0.5706" style="stop-color:#054E80"/>
			<stop  offset="0.7346" style="stop-color:#075B93"/>
			<stop  offset="0.8391" style="stop-color:#054E80"/>
			<stop  offset="1" style="stop-color:#054E80"/>
		</linearGradient>
		<path fill="url(#SVGID_2_)" d="M-56.115,448.36c-0.461-0.154-2.15,0.921-3.992,2.148l-24.719,18.423
			c-2.457,18.731,13.05,29.325,33.931,17.043c3.992-2.148,7.984-4.452,11.822-6.756l-14.432-27.175
			C-54.579,450.049-55.808,448.514-56.115,448.36z"/>
		
			<linearGradient id="SVGID_3_" gradientUnits="userSpaceOnUse" x1="-21.4629" y1="15.6919" x2="20.6378" y2="71.5615" gradientTransform="matrix(1.8664 0 0 1.8664 -0.8658 299.4034)">
			<stop  offset="0" style="stop-color:#00365A"/>
			<stop  offset="0.25" style="stop-color:#00365A"/>
			<stop  offset="0.5706" style="stop-color:#054E80"/>
			<stop  offset="0.7346" style="stop-color:#075B93"/>
			<stop  offset="0.8391" style="stop-color:#054E80"/>
			<stop  offset="1" style="stop-color:#054E80"/>
		</linearGradient>
		<path fill="url(#SVGID_3_)" d="M14.51,395.238l-14.585,10.748c-1.689,1.228-1.997,3.684-0.307,5.22l24.412,24.412
			c15.353-11.362,17.349-26.869,7.369-39.767l-9.826-2.148C19.423,393.241,16.199,393.855,14.51,395.238z"/>
		
			<linearGradient id="SVGID_4_" gradientUnits="userSpaceOnUse" x1="-42.3403" y1="29.1714" x2="0.4586" y2="85.9674" gradientTransform="matrix(1.8664 0 0 1.8664 -0.8658 299.4034)">
			<stop  offset="0" style="stop-color:#00365A"/>
			<stop  offset="0.25" style="stop-color:#00365A"/>
			<stop  offset="0.5706" style="stop-color:#054E80"/>
			<stop  offset="0.7346" style="stop-color:#075B93"/>
			<stop  offset="0.8391" style="stop-color:#054E80"/>
			<stop  offset="1" style="stop-color:#054E80"/>
		</linearGradient>
		<path fill="url(#SVGID_4_)" d="M-6.831,415.964c-1.535-1.535-4.299-1.688-5.988-0.46l-32.242,23.951
			c-1.689,1.229-1.382,2.764,0.768,3.07l47.442,8.751c4.913-3.531,9.672-7.217,14.432-10.9L-6.831,415.964z"/>
		
			<linearGradient id="SVGID_5_" gradientUnits="userSpaceOnUse" x1="-27.6152" y1="17.7217" x2="16.041" y2="75.6555" gradientTransform="matrix(1.8664 0 0 1.8664 -0.8658 299.4034)">
			<stop  offset="0" style="stop-color:#00365A"/>
			<stop  offset="0.25" style="stop-color:#00365A"/>
			<stop  offset="0.5706" style="stop-color:#054E80"/>
			<stop  offset="0.7346" style="stop-color:#075B93"/>
			<stop  offset="0.8391" style="stop-color:#054E80"/>
			<stop  offset="1" style="stop-color:#054E80"/>
		</linearGradient>
		<path fill="url(#SVGID_5_)" d="M3.457,389.71l-28.403-6.142c-2.149-0.46-2.61,0.461-1.075,1.996l14.279,14.28
			c1.535,1.535,4.299,1.688,5.988,0.459l9.826-7.369C5.912,391.706,5.605,390.171,3.457,389.71z"/>
		
			<linearGradient id="SVGID_6_" gradientUnits="userSpaceOnUse" x1="-41.7798" y1="28.4209" x2="1.4247" y2="85.7553" gradientTransform="matrix(1.8664 0 0 1.8664 -0.8658 299.4034)">
			<stop  offset="0" style="stop-color:#00365A"/>
			<stop  offset="0.25" style="stop-color:#00365A"/>
			<stop  offset="0.5706" style="stop-color:#054E80"/>
			<stop  offset="0.7346" style="stop-color:#075B93"/>
			<stop  offset="0.8391" style="stop-color:#054E80"/>
			<stop  offset="1" style="stop-color:#054E80"/>
		</linearGradient>
		<path fill="url(#SVGID_6_)" d="M-52.43,370.365l-29.939-29.939c-3.685,6.141-3.838,15.353,0.921,25.793l27.79,5.988
			C-51.354,372.822-50.895,371.9-52.43,370.365z"/>
		
			<linearGradient id="SVGID_7_" gradientUnits="userSpaceOnUse" x1="-59.6377" y1="40.8979" x2="-17.1577" y2="97.2706" gradientTransform="matrix(1.8664 0 0 1.8664 -0.8658 299.4034)">
			<stop  offset="0" style="stop-color:#00365A"/>
			<stop  offset="0.25" style="stop-color:#00365A"/>
			<stop  offset="0.5706" style="stop-color:#054E80"/>
			<stop  offset="0.7346" style="stop-color:#075B93"/>
			<stop  offset="0.8391" style="stop-color:#054E80"/>
			<stop  offset="1" style="stop-color:#054E80"/>
		</linearGradient>
		<path fill="url(#SVGID_7_)" d="M-61.949,436.077l-13.05-24.565c0,8.291-0.614,16.735-1.689,24.872l12.743,2.304
			C-61.949,439.302-61.028,437.92-61.949,436.077z"/>
		
			<linearGradient id="SVGID_8_" gradientUnits="userSpaceOnUse" x1="-26.4795" y1="17.3403" x2="17.5253" y2="75.7368" gradientTransform="matrix(1.8664 0 0 1.8664 -0.8658 299.4034)">
			<stop  offset="0" style="stop-color:#00365A"/>
			<stop  offset="0.25" style="stop-color:#00365A"/>
			<stop  offset="0.5706" style="stop-color:#054E80"/>
			<stop  offset="0.7346" style="stop-color:#075B93"/>
			<stop  offset="0.8391" style="stop-color:#054E80"/>
			<stop  offset="1" style="stop-color:#054E80"/>
		</linearGradient>
		<path fill="url(#SVGID_8_)" d="M-31.396,377.121l40.226,8.751c2.149,0.46,5.374-0.154,7.063-1.536l1.382-1.075
			c-21.956-16.735-43.911-31.935-68.169-45.292c-10.44-6.142-19.652-6.449-25.793-3.071l38.535,38.538
			C-36.616,374.971-33.546,376.66-31.396,377.121z"/>
		
			<linearGradient id="SVGID_9_" gradientUnits="userSpaceOnUse" x1="-65.8452" y1="46.978" x2="-25.0285" y2="101.1438" gradientTransform="matrix(1.8664 0 0 1.8664 -0.8658 299.4034)">
			<stop  offset="0" style="stop-color:#00365A"/>
			<stop  offset="0.25" style="stop-color:#00365A"/>
			<stop  offset="0.5706" style="stop-color:#054E80"/>
			<stop  offset="0.7346" style="stop-color:#075B93"/>
			<stop  offset="0.8391" style="stop-color:#054E80"/>
			<stop  offset="1" style="stop-color:#054E80"/>
		</linearGradient>
		<path fill="url(#SVGID_9_)" d="M-71.468,445.597l-6.602-1.229c-0.768,3.992-1.689,7.982-2.764,11.976l10.133-7.522
			C-69.012,447.285-69.319,445.903-71.468,445.597z"/>
		
			<linearGradient id="SVGID_10_" gradientUnits="userSpaceOnUse" x1="-44.6235" y1="29.9917" x2="-1.9667" y2="86.5992" gradientTransform="matrix(1.8664 0 0 1.8664 -0.8658 299.4034)">
			<stop  offset="0" style="stop-color:#00365A"/>
			<stop  offset="0.25" style="stop-color:#00365A"/>
			<stop  offset="0.5706" style="stop-color:#054E80"/>
			<stop  offset="0.7346" style="stop-color:#075B93"/>
			<stop  offset="0.8391" style="stop-color:#054E80"/>
			<stop  offset="1" style="stop-color:#054E80"/>
		</linearGradient>
		<path fill="url(#SVGID_10_)" d="M-55.194,432.085c1.075,1.997,3.224,2.457,5.066,1.075l31.475-23.491
			c1.689-1.228,1.996-3.685,0.307-5.22l-21.955-21.955c-1.536-1.535-4.606-3.224-6.756-3.685l-32.856-7.063
			c1.689,6.756,2.917,13.818,3.685,20.88L-55.194,432.085z"/>
	</g>
	<g>
		<path d="M103.122,378.238v55.834h34.775v11.785H90.37v-67.619H103.122L103.122,378.238z"/>
		<path d="M202.142,433.104h-35.356l-5.796,12.753h-13.813l30.332-67.619h13.909l30.332,67.617h-13.911L202.142,433.104z
			 M184.462,392.438l-12.558,28.785h25.115L184.462,392.438z"/>
		<path d="M288.698,397.846c0,5.217-2.513,10.241-8.791,13.042c7.92,2.417,10.817,10.818,10.817,15.068
			c0,15.071-11.301,19.901-25.309,19.901c-10.724,0-21.348,0-32.069,0v-67.619c10.626,0,21.346,0,32.069,0
			C278.748,378.238,288.698,384.227,288.698,397.846z M245.905,405.381h19.512c8.018,0,10.626-3.379,10.626-7.244
			c0-3.092-2.511-8.308-10.626-8.308h-19.512V405.381z M245.905,433.974h19.512c5.217,0,12.655-1.737,12.655-8.113
			c0-6.087-7.438-9.274-12.655-9.274h-19.512V433.974z"/>
		<path d="M357.386,445.855h-50.618c0-22.509,0-45.109,0-67.619h50.618v12.366h-37.965v15.552h36.612v11.88h-36.612v15.264h37.965
			V445.855z"/>
		<path d="M387.24,378.238v55.834h34.774v11.785h-47.526v-67.619H387.24L387.24,378.238z"/>
		<path d="M496.886,425.956H477.76v19.901h-12.751v-67.619c10.625,0,21.25-0.096,31.877-0.096
			C529.922,378.142,530.02,425.956,496.886,425.956z M477.76,414.269h19.126c16.322,0,16.229-23.956,0-23.956H477.76V414.269z"/>
		<path d="M585.567,433.104h-35.354l-5.796,12.753h-13.812l30.332-67.619h13.91l30.332,67.617h-13.91L585.567,433.104z
			 M567.892,392.438l-12.559,28.785h25.114L567.892,392.438z"/>
		<path d="M679.758,411.468c0.29,17.097-10.144,34.388-33.811,34.388c-8.309,0-18.258,0-26.564,0v-67.619c8.307,0,18.256,0,26.564,0
			C669.132,378.238,679.469,394.757,679.758,411.468z M632.038,433.587h13.91c15.361,0,21.444-11.205,21.157-22.217
			c-0.291-10.528-6.474-21.056-21.157-21.056h-13.91V433.587z"/>
	</g>
</g>
</svg>
